solid OpenSCAD_Model
  facet normal -1 0 0
    outer loop
      vertex 0 -11.254 14.8611
      vertex 0 -27.9 6.19504e-15
      vertex 0 6.19504e-15 27.9
    endloop
  endfacet
  facet normal -1 0 0
    outer loop
      vertex 0 6.19504e-15 27.9
      vertex 0 -27.9 6.19504e-15
      vertex 0 -27.9 27.9
    endloop
  endfacet
  facet normal -1 0 0
    outer loop
      vertex 0 0 0
      vertex 0 -27.9 6.19504e-15
      vertex 0 -11.254 13.0389
    endloop
  endfacet
  facet normal -1 0 0
    outer loop
      vertex 0 0 0
      vertex 0 -11.254 13.0389
      vertex 0 -10 12.6315
    endloop
  endfacet
  facet normal -1 0 0
    outer loop
      vertex 0 0 0
      vertex 0 -10 12.6315
      vertex 0 6.19504e-15 27.9
    endloop
  endfacet
  facet normal -1 0 0
    outer loop
      vertex 0 -10 15.2685
      vertex 0 6.19504e-15 27.9
      vertex 0 -10 12.6315
    endloop
  endfacet
  facet normal -1 0 0
    outer loop
      vertex 0 -10 15.2685
      vertex 0 -11.254 14.8611
      vertex 0 6.19504e-15 27.9
    endloop
  endfacet
  facet normal -1 0 0
    outer loop
      vertex 0 -11.254 13.0389
      vertex 0 -27.9 6.19504e-15
      vertex 0 -11.254 14.8611
    endloop
  endfacet
  facet normal 0 -2.22045e-16 -1
    outer loop
      vertex 0 0 0
      vertex 3.5 0 0
      vertex 0 -27.9 6.19504e-15
    endloop
  endfacet
  facet normal 0 -2.22045e-16 -1
    outer loop
      vertex 0 -27.9 6.19504e-15
      vertex 3.5 0 0
      vertex 3.5 -20.9 4.64073e-15
    endloop
  endfacet
  facet normal 0 -2.22045e-16 -1
    outer loop
      vertex 0 -27.9 6.19504e-15
      vertex 3.5 -20.9 4.64073e-15
      vertex 24.4 -20.9 4.64073e-15
    endloop
  endfacet
  facet normal 0 -2.22045e-16 -1
    outer loop
      vertex 24.4 -20.9 4.64073e-15
      vertex 24.4 0 0
      vertex 55.8 0 0
    endloop
  endfacet
  facet normal 0 -2.22045e-16 -1
    outer loop
      vertex 24.4 -20.9 4.64073e-15
      vertex 55.8 0 0
      vertex 55.8 -27.9 6.19504e-15
    endloop
  endfacet
  facet normal 0 -2.22045e-16 -1
    outer loop
      vertex 24.4 -20.9 4.64073e-15
      vertex 55.8 -27.9 6.19504e-15
      vertex 0 -27.9 6.19504e-15
    endloop
  endfacet
  facet normal 0 1 -2.22045e-16
    outer loop
      vertex 0 0 0
      vertex 0 6.19504e-15 27.9
      vertex 3.5 0 0
    endloop
  endfacet
  facet normal 0 1 -2.22045e-16
    outer loop
      vertex 3.5 0 0
      vertex 0 6.19504e-15 27.9
      vertex 3.5 6.19504e-15 27.9
    endloop
  endfacet
  facet normal 0 2.22045e-16 1
    outer loop
      vertex 3.5 6.19504e-15 27.9
      vertex 0 6.19504e-15 27.9
      vertex 0 -27.9 27.9
    endloop
  endfacet
  facet normal 0 2.22045e-16 1
    outer loop
      vertex 3.5 -20.9 27.9
      vertex 3.5 6.19504e-15 27.9
      vertex 0 -27.9 27.9
    endloop
  endfacet
  facet normal 0 2.22045e-16 1
    outer loop
      vertex 55.8 -27.9 27.9
      vertex 34.9 -24.4 27.9
      vertex 0 -27.9 27.9
    endloop
  endfacet
  facet normal 0 2.22045e-16 1
    outer loop
      vertex 55.8 6.19504e-15 27.9
      vertex 24.4 6.19504e-15 27.9
      vertex 55.8 -3.5 27.9
    endloop
  endfacet
  facet normal 0 2.22045e-16 1
    outer loop
      vertex 34.9 -24.4 27.9
      vertex 24.4 -20.9 27.9
      vertex 0 -27.9 27.9
    endloop
  endfacet
  facet normal 0 2.22045e-16 1
    outer loop
      vertex 24.4 -20.9 27.9
      vertex 3.5 -20.9 27.9
      vertex 0 -27.9 27.9
    endloop
  endfacet
  facet normal 0 2.22045e-16 1
    outer loop
      vertex 24.4 6.19504e-15 27.9
      vertex 34.9 -3.5 27.9
      vertex 55.8 -3.5 27.9
    endloop
  endfacet
  facet normal 0 2.22045e-16 1
    outer loop
      vertex 55.8 -24.4 27.9
      vertex 34.9 -24.4 27.9
      vertex 55.8 -27.9 27.9
    endloop
  endfacet
  facet normal 0 2.22045e-16 1
    outer loop
      vertex 24.4 6.19504e-15 27.9
      vertex 34.9 -24.4 27.9
      vertex 34.9 -3.5 27.9
    endloop
  endfacet
  facet normal 0 2.22045e-16 1
    outer loop
      vertex 24.4 6.19504e-15 27.9
      vertex 24.4 -20.9 27.9
      vertex 34.9 -24.4 27.9
    endloop
  endfacet
  facet normal 0 -1 2.22045e-16
    outer loop
      vertex 0 -27.9 27.9
      vertex 0 -27.9 6.19504e-15
      vertex 55.8 -27.9 6.19504e-15
    endloop
  endfacet
  facet normal 0 -1 2.22045e-16
    outer loop
      vertex 55.8 -27.9 27.9
      vertex 0 -27.9 27.9
      vertex 55.8 -27.9 6.19504e-15
    endloop
  endfacet
  facet normal 2.22045e-16 1 -2.22045e-16
    outer loop
      vertex 3.5 -11.254 14.8611
      vertex 3.5 -11.254 13.0389
      vertex 0 -11.254 14.8611
    endloop
  endfacet
  facet normal 2.22045e-16 1 -2.22045e-16
    outer loop
      vertex 0 -11.254 14.8611
      vertex 3.5 -11.254 13.0389
      vertex 0 -11.254 13.0389
    endloop
  endfacet
  facet normal 6.86156e-17 0.309017 0.951056
    outer loop
      vertex 0 -11.254 13.0389
      vertex 3.5 -11.254 13.0389
      vertex 3.5 -9.52102 12.4759
    endloop
  endfacet
  facet normal 6.86156e-17 0.309017 0.951056
    outer loop
      vertex 0 -10 12.6315
      vertex 0 -11.254 13.0389
      vertex 1.06354e-16 -9.52102 12.4759
    endloop
  endfacet
  facet normal 6.86156e-17 0.309017 0.951056
    outer loop
      vertex 1.06354e-16 -9.52102 12.4759
      vertex 0 -11.254 13.0389
      vertex 3.5 -9.52102 12.4759
    endloop
  endfacet
  facet normal 6.86156e-17 0.309017 -0.951056
    outer loop
      vertex 1.06354e-16 -9.52102 15.4241
      vertex 3.5 -9.52102 15.4241
      vertex 0 -10 15.2685
    endloop
  endfacet
  facet normal 6.86156e-17 0.309017 -0.951056
    outer loop
      vertex 0 -10 15.2685
      vertex 3.5 -9.52102 15.4241
      vertex 3.5 -11.254 14.8611
    endloop
  endfacet
  facet normal 6.86156e-17 0.309017 -0.951056
    outer loop
      vertex 0 -10 15.2685
      vertex 3.5 -11.254 14.8611
      vertex 0 -11.254 14.8611
    endloop
  endfacet
  facet normal 1 -2.22045e-16 4.93038e-32
    outer loop
      vertex 1.06354e-16 -9.52102 12.4759
      vertex 3.44169e-16 -8.45 13.95
      vertex 1.06354e-16 -9.52102 15.4241
    endloop
  endfacet
  facet normal 1 -2.22045e-16 4.93038e-32
    outer loop
      vertex 0 -10 12.6315
      vertex 1.06354e-16 -9.52102 12.4759
      vertex 0 -10 15.2685
    endloop
  endfacet
  facet normal 1 -2.22045e-16 4.93038e-32
    outer loop
      vertex 0 -10 15.2685
      vertex 1.06354e-16 -9.52102 12.4759
      vertex 1.06354e-16 -9.52102 15.4241
    endloop
  endfacet
  facet normal 1 0 0
    outer loop
      vertex 55.8 -3.5 7
      vertex 55.8 0 0
      vertex 55.8 6.19504e-15 27.9
    endloop
  endfacet
  facet normal 1 0 0
    outer loop
      vertex 55.8 -3.5 7
      vertex 55.8 -24.4 7
      vertex 55.8 -27.9 6.19504e-15
    endloop
  endfacet
  facet normal 1 0 0
    outer loop
      vertex 55.8 -27.9 6.19504e-15
      vertex 55.8 0 0
      vertex 55.8 -3.5 7
    endloop
  endfacet
  facet normal 1 0 0
    outer loop
      vertex 55.8 -24.4 27.9
      vertex 55.8 -27.9 6.19504e-15
      vertex 55.8 -24.4 7
    endloop
  endfacet
  facet normal 1 0 0
    outer loop
      vertex 55.8 -27.9 27.9
      vertex 55.8 -27.9 6.19504e-15
      vertex 55.8 -24.4 27.9
    endloop
  endfacet
  facet normal 1 0 0
    outer loop
      vertex 55.8 -3.5 27.9
      vertex 55.8 -3.5 7
      vertex 55.8 6.19504e-15 27.9
    endloop
  endfacet
  facet normal 0 1 -2.22045e-16
    outer loop
      vertex 24.4 0 0
      vertex 24.4 6.19504e-15 27.9
      vertex 55.8 0 0
    endloop
  endfacet
  facet normal 0 1 -2.22045e-16
    outer loop
      vertex 43.5259 3.88111e-15 17.479
      vertex 24.4 6.19504e-15 27.9
      vertex 55.8 6.19504e-15 27.9
    endloop
  endfacet
  facet normal 0 1 -2.22045e-16
    outer loop
      vertex 44.0889 3.49632e-15 15.746
      vertex 24.4 6.19504e-15 27.9
      vertex 43.5259 3.88111e-15 17.479
    endloop
  endfacet
  facet normal 0 1 -2.22045e-16
    outer loop
      vertex 45 4.11893e-15 18.55
      vertex 43.5259 3.88111e-15 17.479
      vertex 55.8 6.19504e-15 27.9
    endloop
  endfacet
  facet normal 0 1 -2.22045e-16
    outer loop
      vertex 55.8 0 0
      vertex 24.4 6.19504e-15 27.9
      vertex 44.0889 3.49632e-15 15.746
    endloop
  endfacet
  facet normal 0 1 -2.22045e-16
    outer loop
      vertex 55.8 0 0
      vertex 45.9111 3.49632e-15 15.746
      vertex 55.8 6.19504e-15 27.9
    endloop
  endfacet
  facet normal 0 1 -2.22045e-16
    outer loop
      vertex 45.9111 3.49632e-15 15.746
      vertex 46.4741 3.88111e-15 17.479
      vertex 55.8 6.19504e-15 27.9
    endloop
  endfacet
  facet normal 0 1 -2.22045e-16
    outer loop
      vertex 46.4741 3.88111e-15 17.479
      vertex 45 4.11893e-15 18.55
      vertex 55.8 6.19504e-15 27.9
    endloop
  endfacet
  facet normal 0 1 -2.22045e-16
    outer loop
      vertex 45.9111 3.49632e-15 15.746
      vertex 55.8 0 0
      vertex 44.0889 3.49632e-15 15.746
    endloop
  endfacet
  facet normal -1 0 0
    outer loop
      vertex 24.4 -20.9 27.9
      vertex 24.4 6.19504e-15 27.9
      vertex 24.4 -20.9 4.64073e-15
    endloop
  endfacet
  facet normal -1 0 0
    outer loop
      vertex 24.4 -20.9 4.64073e-15
      vertex 24.4 6.19504e-15 27.9
      vertex 24.4 0 0
    endloop
  endfacet
  facet normal 0 1 -2.22045e-16
    outer loop
      vertex 24.4 -20.9 27.9
      vertex 24.4 -20.9 4.64073e-15
      vertex 3.5 -20.9 27.9
    endloop
  endfacet
  facet normal 0 1 -2.22045e-16
    outer loop
      vertex 3.5 -20.9 27.9
      vertex 24.4 -20.9 4.64073e-15
      vertex 3.5 -20.9 4.64073e-15
    endloop
  endfacet
  facet normal 1 0 0
    outer loop
      vertex 3.5 -11.254 13.0389
      vertex 3.5 -20.9 27.9
      vertex 3.5 -20.9 4.64073e-15
    endloop
  endfacet
  facet normal 1 0 0
    outer loop
      vertex 3.5 -9.52102 15.4241
      vertex 3.5 -8.45 13.95
      vertex 3.5 6.19504e-15 27.9
    endloop
  endfacet
  facet normal 1 0 0
    outer loop
      vertex 3.5 -11.254 14.8611
      vertex 3.5 -20.9 27.9
      vertex 3.5 -11.254 13.0389
    endloop
  endfacet
  facet normal 1 0 0
    outer loop
      vertex 3.5 6.19504e-15 27.9
      vertex 3.5 -20.9 27.9
      vertex 3.5 -11.254 14.8611
    endloop
  endfacet
  facet normal 1 0 0
    outer loop
      vertex 3.5 6.19504e-15 27.9
      vertex 3.5 -11.254 14.8611
      vertex 3.5 -9.52102 15.4241
    endloop
  endfacet
  facet normal 1 0 0
    outer loop
      vertex 3.5 0 0
      vertex 3.5 6.19504e-15 27.9
      vertex 3.5 -8.45 13.95
    endloop
  endfacet
  facet normal 1 0 0
    outer loop
      vertex 3.5 0 0
      vertex 3.5 -9.52102 12.4759
      vertex 3.5 -20.9 4.64073e-15
    endloop
  endfacet
  facet normal 1 0 0
    outer loop
      vertex 3.5 0 0
      vertex 3.5 -8.45 13.95
      vertex 3.5 -9.52102 12.4759
    endloop
  endfacet
  facet normal 1 0 0
    outer loop
      vertex 3.5 -9.52102 12.4759
      vertex 3.5 -11.254 13.0389
      vertex 3.5 -20.9 4.64073e-15
    endloop
  endfacet
  facet normal 0 -1 2.22045e-16
    outer loop
      vertex 45 -3.5 18.55
      vertex 55.8 -3.5 27.9
      vertex 34.9 -3.5 27.9
    endloop
  endfacet
  facet normal 0 -1 2.22045e-16
    outer loop
      vertex 46.4741 -3.5 17.479
      vertex 45.9111 -3.5 15.746
      vertex 55.8 -3.5 7
    endloop
  endfacet
  facet normal 0 -1 2.22045e-16
    outer loop
      vertex 34.9 -3.5 7
      vertex 43.5259 -3.5 17.479
      vertex 34.9 -3.5 27.9
    endloop
  endfacet
  facet normal 0 -1 2.22045e-16
    outer loop
      vertex 46.4741 -3.5 17.479
      vertex 55.8 -3.5 27.9
      vertex 45 -3.5 18.55
    endloop
  endfacet
  facet normal 0 -1 2.22045e-16
    outer loop
      vertex 45.9111 -3.5 15.746
      vertex 44.0889 -3.5 15.746
      vertex 55.8 -3.5 7
    endloop
  endfacet
  facet normal 0 -1 2.22045e-16
    outer loop
      vertex 55.8 -3.5 7
      vertex 55.8 -3.5 27.9
      vertex 46.4741 -3.5 17.479
    endloop
  endfacet
  facet normal 0 -1 2.22045e-16
    outer loop
      vertex 34.9 -3.5 7
      vertex 44.0889 -3.5 15.746
      vertex 43.5259 -3.5 17.479
    endloop
  endfacet
  facet normal 0 -1 2.22045e-16
    outer loop
      vertex 34.9 -3.5 7
      vertex 55.8 -3.5 7
      vertex 44.0889 -3.5 15.746
    endloop
  endfacet
  facet normal 0 -1 2.22045e-16
    outer loop
      vertex 43.5259 -3.5 17.479
      vertex 45 -3.5 18.55
      vertex 34.9 -3.5 27.9
    endloop
  endfacet
  facet normal 1 0 0
    outer loop
      vertex 34.9 -3.5 27.9
      vertex 34.9 -24.4 27.9
      vertex 34.9 -24.4 7
    endloop
  endfacet
  facet normal 1 0 0
    outer loop
      vertex 34.9 -3.5 7
      vertex 34.9 -3.5 27.9
      vertex 34.9 -24.4 7
    endloop
  endfacet
  facet normal 0 1 -2.22045e-16
    outer loop
      vertex 55.8 -24.4 27.9
      vertex 55.8 -24.4 7
      vertex 34.9 -24.4 27.9
    endloop
  endfacet
  facet normal 0 1 -2.22045e-16
    outer loop
      vertex 34.9 -24.4 27.9
      vertex 55.8 -24.4 7
      vertex 34.9 -24.4 7
    endloop
  endfacet
  facet normal -1.79638e-16 -0.809017 0.587785
    outer loop
      vertex 3.5 -9.52102 12.4759
      vertex 3.5 -8.45 13.95
      vertex 3.44169e-16 -8.45 13.95
    endloop
  endfacet
  facet normal -1.79638e-16 -0.809017 0.587785
    outer loop
      vertex 1.06354e-16 -9.52102 12.4759
      vertex 3.5 -9.52102 12.4759
      vertex 3.44169e-16 -8.45 13.95
    endloop
  endfacet
  facet normal -1.79638e-16 -0.809017 -0.587785
    outer loop
      vertex 3.44169e-16 -8.45 13.95
      vertex 3.5 -8.45 13.95
      vertex 3.5 -9.52102 15.4241
    endloop
  endfacet
  facet normal -1.79638e-16 -0.809017 -0.587785
    outer loop
      vertex 1.06354e-16 -9.52102 15.4241
      vertex 3.44169e-16 -8.45 13.95
      vertex 3.5 -9.52102 15.4241
    endloop
  endfacet
  facet normal 0 2.22045e-16 1
    outer loop
      vertex 34.9 -24.4 7
      vertex 55.8 -24.4 7
      vertex 55.8 -3.5 7
    endloop
  endfacet
  facet normal 0 2.22045e-16 1
    outer loop
      vertex 34.9 -3.5 7
      vertex 34.9 -24.4 7
      vertex 55.8 -3.5 7
    endloop
  endfacet
  facet normal 0.951056 6.86156e-17 0.309017
    outer loop
      vertex 43.5259 -3.5 17.479
      vertex 44.0889 -3.5 15.746
      vertex 44.0889 3.49632e-15 15.746
    endloop
  endfacet
  facet normal 0.951056 6.86156e-17 0.309017
    outer loop
      vertex 43.5259 3.88111e-15 17.479
      vertex 43.5259 -3.5 17.479
      vertex 44.0889 3.49632e-15 15.746
    endloop
  endfacet
  facet normal 0.587785 -1.79638e-16 -0.809017
    outer loop
      vertex 45 -3.5 18.55
      vertex 43.5259 -3.5 17.479
      vertex 45 4.11893e-15 18.55
    endloop
  endfacet
  facet normal 0.587785 -1.79638e-16 -0.809017
    outer loop
      vertex 45 4.11893e-15 18.55
      vertex 43.5259 -3.5 17.479
      vertex 43.5259 3.88111e-15 17.479
    endloop
  endfacet
  facet normal -0.587785 -1.79638e-16 -0.809017
    outer loop
      vertex 46.4741 -3.5 17.479
      vertex 45 -3.5 18.55
      vertex 46.4741 3.88111e-15 17.479
    endloop
  endfacet
  facet normal -0.587785 -1.79638e-16 -0.809017
    outer loop
      vertex 46.4741 3.88111e-15 17.479
      vertex 45 -3.5 18.55
      vertex 45 4.11893e-15 18.55
    endloop
  endfacet
  facet normal -0.951056 6.86156e-17 0.309017
    outer loop
      vertex 46.4741 -3.5 17.479
      vertex 46.4741 3.88111e-15 17.479
      vertex 45.9111 -3.5 15.746
    endloop
  endfacet
  facet normal -0.951056 6.86156e-17 0.309017
    outer loop
      vertex 45.9111 -3.5 15.746
      vertex 46.4741 3.88111e-15 17.479
      vertex 45.9111 3.49632e-15 15.746
    endloop
  endfacet
  facet normal 2.22045e-16 2.22045e-16 1
    outer loop
      vertex 44.0889 -3.5 15.746
      vertex 45.9111 -3.5 15.746
      vertex 45.9111 3.49632e-15 15.746
    endloop
  endfacet
  facet normal 2.22045e-16 2.22045e-16 1
    outer loop
      vertex 44.0889 3.49632e-15 15.746
      vertex 44.0889 -3.5 15.746
      vertex 45.9111 3.49632e-15 15.746
    endloop
  endfacet
endsolid OpenSCAD_Model
